<?xml version="1.0" encoding="UTF-8"?>
<svg id="Layer_2" data-name="Layer 2" xmlns="http://www.w3.org/2000/svg" viewBox="0 0 1769.68 334.23">
  <defs>
    <style>
      .cls-1 {
        fill: #29af73;
      }

      .cls-2 {
        fill: #111;
      }

      .cls-3 {
        fill: #295353;
      }

      .cls-4 {
        fill: #9e0028;
      }

      .cls-5 {
        fill: #ad2a3d;
      }
    </style>
  </defs>
  <g id="Layer_1-2" data-name="Layer 1">
    <g>
      <g>
        <g>
          <path class="cls-2" d="M573.67,6.98h90.77v21.36h-66.95v44.77h63.25v20.13h-63.25v62.43h-23.82V6.98Z"/>
          <path class="cls-2" d="M685.59,102.07v-63.87h23v62.02c0,25.47,9.24,37.58,31.42,37.58s31.22-14.58,31.22-40.46v-59.15h23v117.47h-23v-21.36c-5.13,14.58-18.69,23.62-38.2,23.62-32.45,0-47.44-18.89-47.44-55.86Z"/>
          <path class="cls-2" d="M825.65,38.2h23v21.36c5.34-14.58,18.69-23.41,38.4-23.41,32.45,0,47.44,18.69,47.44,55.86v63.66h-23v-61.82c0-25.67-9.86-37.79-31.63-37.79s-31.22,14.58-31.22,40.46v59.15h-23V38.2Z"/>
          <path class="cls-2" d="M958.31,96.93c0-40.46,24.64-60.99,53.81-60.99,18.48,0,35.12,9.04,41.69,25.26V0h23v155.46h-23v-22.18c-6.57,15.81-23.21,25.05-41.48,25.05-29.16,0-54.01-20.74-54.01-61.41ZM1054.42,96.93c0-25.67-14.79-41.48-36.76-41.48s-36.35,15.61-36.35,41.48,14.79,41.69,36.76,41.69,36.35-15.81,36.35-41.69Z"/>
          <path class="cls-2" d="M1104.11,96.93c0-36.14,24.23-60.99,59.35-60.99,37.38,0,59.97,27.52,57.09,66.95h-93.44c.82,22.8,14.99,35.73,37.79,35.73,16.43,0,27.11-5.54,32.86-16.84l21.15,3.29c-9.45,21.77-27.93,32.86-54.42,32.86-36.56,0-60.38-24.23-60.38-60.99ZM1198.99,84.82c-1.64-18.69-14.38-30.6-35.12-30.6s-33.47,10.27-36.14,30.6h71.26Z"/>
          <path class="cls-2" d="M1242.93,96.93c0-40.46,24.64-60.99,53.81-60.99,18.48,0,35.12,9.04,41.69,25.26V0h23v155.46h-23v-22.18c-6.57,15.81-23.21,25.05-41.48,25.05-29.16,0-54.01-20.74-54.01-61.41ZM1339.05,96.93c0-25.67-14.79-41.48-36.76-41.48s-36.35,15.61-36.35,41.48,14.79,41.69,36.76,41.69,36.35-15.81,36.35-41.69Z"/>
          <path class="cls-2" d="M573.67,182.87h40.25c48.67,0,69.83,13.35,69.83,52.37s-21.15,52.37-69.62,52.37h-16.63v43.95h-23.82v-148.69ZM617.42,265.84c28.13,0,42.1-6.57,42.1-31.01s-13.96-30.8-42.1-30.8h-19.92v61.82h19.92Z"/>
          <path class="cls-2" d="M707.77,214.09h23v19.72c4.52-12.53,16.84-24.03,41.28-20.54l-2.46,22.18c-26.29-4.93-38.81,9.24-38.81,37.99v58.12h-23v-117.47Z"/>
          <path class="cls-2" d="M778.21,272.83c0-36.14,24.23-60.99,59.35-60.99,37.38,0,59.97,27.52,57.09,66.95h-93.44c.82,22.8,14.99,35.73,37.79,35.73,16.43,0,27.11-5.54,32.86-16.84l21.15,3.29c-9.45,21.77-27.93,32.86-54.42,32.86-36.56,0-60.38-24.23-60.38-60.99ZM873.09,260.71c-1.64-18.69-14.38-30.6-35.12-30.6s-33.48,10.27-36.14,30.6h71.26Z"/>
          <path class="cls-2" d="M917.03,272.83c0-40.46,24.64-60.99,53.81-60.99,18.48,0,35.12,9.04,41.69,25.26v-61.2h23v155.46h-23v-22.18c-6.57,15.81-23.21,25.05-41.48,25.05-29.16,0-54.01-20.74-54.01-61.41ZM1013.14,272.83c0-25.67-14.79-41.48-36.76-41.48s-36.35,15.61-36.35,41.48,14.79,41.69,36.76,41.69,36.35-15.81,36.35-41.69Z"/>
          <path class="cls-2" d="M1064.89,184.72c0-7.8,5.75-12.32,13.55-12.32,7.39,0,13.76,4.52,13.76,12.32s-6.37,12.32-13.76,12.32c-7.8,0-13.55-4.72-13.55-12.32ZM1066.94,214.09h22.8v117.47h-22.8v-117.47Z"/>
          <path class="cls-2" d="M1116.43,272.83c0-35.53,24.23-60.99,58.12-60.99,29.57,0,47.23,13.55,54.63,40.25l-19.72,3.9c-5.75-16.63-16.63-24.64-33.89-24.64-21.36,0-36.14,16.84-36.14,41.48s14.79,41.28,36.14,41.28c16.02,0,28.34-9.04,33.48-24.44l19.71,3.9c-6.37,25.26-26.08,40.25-54.22,40.25-33.89,0-58.12-25.47-58.12-60.99Z"/>
          <path class="cls-2" d="M1259.15,284.74v-52.78h-17.04v-17.87h17.04v-21.56l23.21-4.93v26.49h34.71v17.87h-34.71v50.11c0,24.23,6.37,32.65,24.23,32.65,2.26,0,4.93-.41,9.45-1.03l3.08,17.87c-4.52,1.03-11.09,1.64-16.02,1.64-30.19,0-43.95-12.53-43.95-48.47Z"/>
          <path class="cls-2" d="M1337.39,184.72c0-7.8,5.75-12.32,13.55-12.32,7.39,0,13.76,4.52,13.76,12.32s-6.37,12.32-13.76,12.32c-7.8,0-13.55-4.72-13.55-12.32ZM1339.45,214.09h22.8v117.47h-22.8v-117.47Z"/>
          <path class="cls-2" d="M1388.94,272.83c0-42.31,29.37-60.99,59.35-60.99s59.56,18.69,59.56,60.99-29.37,61.41-59.35,61.41-59.56-18.69-59.56-61.41ZM1484.85,272.83c0-25.67-14.79-41.48-36.56-41.48s-36.35,15.61-36.35,41.48,14.58,41.69,36.56,41.69,36.35-15.81,36.35-41.69Z"/>
          <path class="cls-2" d="M1534.13,214.09h23v21.36c5.34-14.58,18.69-23.41,38.4-23.41,32.45,0,47.44,18.69,47.44,55.86v63.66h-23v-61.82c0-25.67-9.86-37.79-31.63-37.79s-31.22,14.58-31.22,40.46v59.15h-23v-117.47Z"/>
          <path class="cls-2" d="M1663.09,303.22l20.95-5.75c5.75,10.68,17.87,16.43,34.3,16.43,18.28,0,28.14-5.75,28.14-16.43,0-26.9-78.25-2.46-78.25-51.75,0-20.13,21.36-33.68,48.47-33.68,21.36,0,42.92,10.68,49.9,26.9l-20.54,5.54c-4.93-8.62-16.43-13.55-28.96-13.55-16.43,0-26.29,5.54-26.29,15.2,0,26.7,78.86,2.05,78.86,50.73,0,22.59-19.92,36.76-51.34,36.76-26.49,0-48.06-11.91-55.24-30.39Z"/>
        </g>
        <g>
          <path class="cls-4" d="M244.92,34.53h-.16c.05,0,.11,0,.16,0Z"/>
          <path class="cls-3" d="M244.92,34.53h.37c-.12,0-.25,0-.37,0Z"/>
        </g>
      </g>
      <g>
        <path class="cls-1" d="M205.24,133.62c-14-.09-18.48-18.89-6.03-25.29l99.38-59.64H14.31c-7.91,0-14.31,6.41-14.31,14.32v246.63c0,7.91,6.41,14.32,14.31,14.32h105.78l128.22-190.07-43.08-.27Z"/>
        <path class="cls-5" d="M489.82,48.69h-134.43l-21.52,155.88c-2.02,13.85-21.26,15.69-25.88,2.48l-14.2-40.67-105,157.58h301.04c7.91,0,14.31-6.41,14.31-14.32V63c0-7.91-6.41-14.32-14.31-14.32Z"/>
      </g>
    </g>
  </g>
</svg>